<?xml version="1.0" encoding="UTF-8" standalone="no"?><!DOCTYPE svg PUBLIC "-//W3C//DTD SVG 1.1//EN" "http://www.w3.org/Graphics/SVG/1.1/DTD/svg11.dtd"><svg width="100%" height="100%" viewBox="0 0 925 275" version="1.1" xmlns="http://www.w3.org/2000/svg" xmlns:xlink="http://www.w3.org/1999/xlink" xml:space="preserve" xmlns:serif="http://www.serif.com/" style="fill-rule:evenodd;clip-rule:evenodd;stroke-linejoin:round;stroke-miterlimit:2;"><g><g><path d="M438.907,175.024c-4.916,-0 -9.326,-0.834 -13.232,-2.502c-3.906,-1.668 -7.242,-4.081 -10.007,-7.241c-2.765,-3.16 -4.893,-6.956 -6.385,-11.389c-1.492,-4.433 -2.239,-9.414 -2.239,-14.944c0,-5.53 0.747,-10.489 2.239,-14.878c1.492,-4.388 3.62,-8.141 6.385,-11.257c2.765,-3.116 6.101,-5.507 10.007,-7.175c3.906,-1.668 8.316,-2.502 13.232,-2.502c4.915,0 9.348,0.834 13.297,2.502c3.95,1.668 7.308,4.059 10.073,7.175c2.764,3.116 4.893,6.869 6.385,11.257c1.492,4.389 2.238,9.348 2.238,14.878c0,5.53 -0.746,10.511 -2.238,14.944c-1.492,4.433 -3.621,8.229 -6.385,11.389c-2.765,3.16 -6.123,5.573 -10.073,7.241c-3.949,1.668 -8.382,2.502 -13.297,2.502Zm-0,-13.562c4.476,0 7.987,-1.36 10.533,-4.081c2.545,-2.721 3.818,-6.715 3.818,-11.981l-0,-12.771c-0,-5.179 -1.273,-9.129 -3.818,-11.85c-2.546,-2.721 -6.057,-4.082 -10.533,-4.082c-4.389,0 -7.856,1.361 -10.402,4.082c-2.545,2.721 -3.818,6.671 -3.818,11.85l0,12.771c0,5.266 1.273,9.26 3.818,11.981c2.546,2.721 6.013,4.081 10.402,4.081Z" style="fill:#403e3c;fill-rule:nonzero;"/><path d="M483.145,76.014l16.853,-0l-0,58.721l0.658,0l9.085,-12.376l15.404,-17.643l19.091,0l-23.699,26.596l26.201,42.132l-20.013,-0l-17.643,-30.809l-9.084,9.874l-0,20.935l-16.853,-0l0,-97.43Z" style="fill:#403e3c;fill-rule:nonzero;"/><path d="M562.932,94.71c-3.511,-0 -6.034,-0.79 -7.57,-2.37c-1.537,-1.58 -2.305,-3.599 -2.305,-6.056l0,-2.634c0,-2.457 0.768,-4.476 2.305,-6.056c1.536,-1.58 4.059,-2.37 7.57,-2.37c3.423,-0 5.925,0.79 7.505,2.37c1.58,1.58 2.37,3.599 2.37,6.056l-0,2.634c-0,2.457 -0.79,4.476 -2.37,6.056c-1.58,1.58 -4.082,2.37 -7.505,2.37Zm-8.426,10.006l16.852,0l0,68.728l-16.852,-0l-0,-68.728Z" style="fill:#403e3c;fill-rule:nonzero;"/><path d="M630.343,104.716l15.799,0l-27.649,80.972c-0.877,2.458 -1.865,4.586 -2.962,6.386c-1.097,1.799 -2.392,3.269 -3.884,4.411c-1.492,1.141 -3.292,1.974 -5.398,2.501c-2.107,0.527 -4.564,0.79 -7.373,0.79l-10.138,0l-0,-13.429l12.376,-0l3.16,-9.612l-24.621,-72.019l16.721,0l11.981,36.339l4.477,17.379l0.79,0l4.74,-17.379l11.981,-36.339Z" style="fill:#403e3c;fill-rule:nonzero;"/><path d="M695.647,161.989l-0.658,0c-0.614,1.756 -1.426,3.401 -2.436,4.937c-1.009,1.536 -2.282,2.919 -3.818,4.148c-1.536,1.229 -3.379,2.194 -5.53,2.896c-2.15,0.703 -4.63,1.054 -7.439,1.054c-7.109,-0 -12.551,-2.326 -16.326,-6.978c-3.774,-4.652 -5.661,-11.279 -5.661,-19.881l-0,-43.449l16.853,0l-0,41.737c-0,4.74 0.921,8.361 2.764,10.862c1.844,2.502 4.784,3.752 8.822,3.752c1.667,0 3.313,-0.219 4.937,-0.658c1.624,-0.439 3.05,-1.119 4.279,-2.041c1.229,-0.921 2.238,-2.062 3.028,-3.423c0.79,-1.36 1.185,-2.962 1.185,-4.805l0,-45.424l16.853,0l0,68.728l-16.853,-0l0,-11.455Z" style="fill:#403e3c;fill-rule:nonzero;"/></g><path d="M370.147,185.67c-1.33,17.701 -10.091,26.32 -26.275,26.274l-105.097,0c-17.598,-1.322 -26.218,-9.987 -26.275,-25.988l0,0l0,-0.057l0,-0.04l0,-0.189l0,-122.327l26.275,-0l-0,122.327l105.097,-0l0,-96.34l-26.274,0l-0,26.275l-52.549,-0l-0,-25.988l-26.274,0l-0,-26.274l26.274,-0l-0,25.987l52.549,0l-0,-26.274l52.549,-0l-0,122.614Z" style="fill:#4385be;"/></g></svg>