<?xml version="1.0" encoding="UTF-8" standalone="no"?><!DOCTYPE svg PUBLIC "-//W3C//DTD SVG 1.1//EN" "http://www.w3.org/Graphics/SVG/1.1/DTD/svg11.dtd"><svg width="100%" height="100%" viewBox="0 0 32 32" version="1.1" xmlns="http://www.w3.org/2000/svg" xmlns:xlink="http://www.w3.org/1999/xlink" xml:space="preserve" xmlns:serif="http://www.serif.com/" style="fill-rule:evenodd;clip-rule:evenodd;stroke-linejoin:round;stroke-miterlimit:2;"><path d="M31,25.167c-0.253,3.368 -1.92,5.008 -5,5l-20,-0c-3.349,-0.252 -4.989,-1.901 -5,-4.946l0,0l0,-0.011l0,-0.007l0,-0.036l0,-23.279l5,-0l0,23.279l20,-0l0,-18.334l-5,0l0,5l-10,0l0,-4.945l-5,-0l0,-5l5,-0l0,4.945l10,0l0,-5l10,0l0,23.334Z" style="fill:#4385be;"/></svg>